<svg width="18" height="18" viewBox="0 0 18 18" fill="none" xmlns="http://www.w3.org/2000/svg">
<path d="M18 6.36001V15C18 15.1989 17.921 15.3897 17.7803 15.5303C17.6397 15.671 17.4489 15.75 17.25 15.75C17.0511 15.75 16.8603 15.671 16.7197 15.5303C16.579 15.3897 16.5 15.1989 16.5 15V8.81401L10.95 11.466C10.3648 11.8114 9.69676 11.9913 9.01725 11.9865C8.30463 11.9876 7.60497 11.7961 6.99225 11.4323L1.45724 8.79751C1.02216 8.56355 0.657602 8.21741 0.40141 7.79503C0.145219 7.37265 0.0067235 6.8894 0.000295459 6.39544C-0.00613258 5.90147 0.119741 5.41479 0.364854 4.98588C0.609968 4.55697 0.965391 4.20147 1.39424 3.95626C1.41449 3.94426 1.43624 3.93301 1.45724 3.92251L7.05 1.25401C7.65379 0.907259 8.33907 0.727609 9.03532 0.733541C9.73158 0.739472 10.4137 0.930772 11.0115 1.28776L16.5427 3.92251C16.9792 4.164 17.3439 4.51673 17.5999 4.94486C17.8558 5.37299 17.9939 5.86125 18 6.36001ZM9.0165 13.485C8.05693 13.4871 7.11384 13.2357 6.28275 12.756L2.99999 11.1893V13.2143C3.00044 14.0149 3.25677 14.7944 3.73157 15.4391C4.20636 16.0838 4.87478 16.5598 5.63925 16.7978C6.73149 17.1114 7.8637 17.2637 9 17.25C10.1364 17.2628 11.2686 17.1094 12.3607 16.7948C13.1252 16.5568 13.7936 16.0808 14.2684 15.4361C14.7432 14.7914 14.9996 14.0119 15 13.2113V11.193L11.6557 12.7905C10.853 13.2517 9.9423 13.4919 9.0165 13.4865V13.485Z" fill="white"/>
</svg>