<svg width="100%" height="100%" viewBox="0 0 203 60" fill="none" xmlns="http://www.w3.org/2000/svg">
<path d="M80.0312 22.7969C80.0312 25.3698 80.7344 27.401 82.1406 28.8906C83.5469 30.3802 85.401 31.125 87.7031 31.125C90.0365 31.125 91.8906 30.4531 93.2656 29.1094C94.6406 27.7656 95.5052 26.0885 95.8594 24.0781L99.0625 25.3594C98.4688 28.0365 97.1719 30.1979 95.1719 31.8438C93.1823 33.4896 90.6927 34.3125 87.7031 34.3125C85.5052 34.3438 83.5312 33.8542 81.7812 32.8438C80.0312 31.8229 78.6823 30.4323 77.7344 28.6719C76.7865 26.9115 76.3229 24.9531 76.3438 22.7969C76.3125 21.2135 76.5885 19.7083 77.1719 18.2812C77.7656 16.8438 78.5677 15.6094 79.5781 14.5781C80.5885 13.5469 81.8021 12.7344 83.2188 12.1406C84.6458 11.5365 86.1406 11.25 87.7031 11.2812C89.0885 11.2812 90.3646 11.4844 91.5312 11.8906C92.6979 12.2865 93.6875 12.8333 94.5 13.5312C95.3229 14.2292 96.0104 15.026 96.5625 15.9219C97.1146 16.8073 97.5208 17.7656 97.7812 18.7969L94.5781 20.2344C94.2344 18.4948 93.4635 17.1042 92.2656 16.0625C91.0781 15.0104 89.5573 14.4844 87.7031 14.4844C85.4844 14.4844 83.651 15.25 82.2031 16.7812C80.7552 18.3125 80.0312 20.3177 80.0312 22.7969Z" fill="#373042"/>
<path d="M102.158 32.0625C100.699 30.5625 99.97 28.6823 99.97 26.4219C99.97 24.1615 100.699 22.2812 102.158 20.7812C103.626 19.2708 105.496 18.5156 107.767 18.5156C110.038 18.5156 111.908 19.2708 113.376 20.7812C114.845 22.2812 115.579 24.1615 115.579 26.4219C115.579 28.6823 114.845 30.5625 113.376 32.0625C111.908 33.5625 110.038 34.3125 107.767 34.3125C105.496 34.3125 103.626 33.5625 102.158 32.0625ZM110.954 29.9219C111.798 29.0052 112.22 27.8385 112.22 26.4219C112.22 25.0052 111.798 23.8385 110.954 22.9219C110.111 22.0052 109.048 21.5469 107.767 21.5469C106.486 21.5469 105.423 22.0052 104.579 22.9219C103.746 23.8385 103.329 25.0052 103.329 26.4219C103.329 27.8385 103.746 29.0052 104.579 29.9219C105.423 30.8281 106.486 31.2812 107.767 31.2812C109.048 31.2812 110.111 30.8281 110.954 29.9219Z" fill="#373042"/>
<path d="M117.487 18.8281H120.846V20.9688C121.565 19.3333 122.898 18.5156 124.846 18.5156C125.815 18.5156 126.648 18.7865 127.346 19.3281C128.044 19.8594 128.544 20.6458 128.846 21.6875C129.221 20.6458 129.789 19.8594 130.549 19.3281C131.32 18.7865 132.195 18.5156 133.174 18.5156C134.612 18.5156 135.742 18.974 136.565 19.8906C137.398 20.7969 137.815 22.0885 137.815 23.7656V34H134.456V24.5C134.456 23.5729 134.216 22.8438 133.737 22.3125C133.268 21.7812 132.654 21.5156 131.893 21.5156C131.133 21.5156 130.513 21.7812 130.034 22.3125C129.565 22.8438 129.331 23.5729 129.331 24.5V34H125.971V24.5C125.971 23.5729 125.732 22.8438 125.253 22.3125C124.784 21.7812 124.169 21.5156 123.409 21.5156C122.628 21.5156 122.003 21.8021 121.534 22.375C121.075 22.9479 120.846 23.7604 120.846 24.8125V34H117.487V18.8281Z" fill="#373042"/>
<path d="M140.613 18.8281H143.848V21.5156C144.358 20.6198 145.098 19.8958 146.066 19.3438C147.045 18.7917 148.056 18.5156 149.098 18.5156C151.139 18.5156 152.795 19.2656 154.066 20.7656C155.337 22.2552 155.973 24.1719 155.973 26.5156C155.973 28.8385 155.311 30.7188 153.988 32.1562C152.665 33.5938 150.926 34.3125 148.769 34.3125C147.728 34.3125 146.78 34.1094 145.926 33.7031C145.071 33.2865 144.42 32.6823 143.973 31.8906V40.3438H140.613V18.8281ZM148.223 31.3438C149.462 31.3438 150.504 30.8958 151.348 30C152.191 29.1042 152.613 27.9427 152.613 26.5156C152.613 25.0885 152.186 23.9062 151.332 22.9688C150.478 22.0208 149.441 21.5469 148.223 21.5469C147.066 21.5469 146.045 22.0208 145.16 22.9688C144.285 23.9062 143.848 25.0885 143.848 26.5156C143.848 27.9427 144.28 29.1042 145.144 30C146.009 30.8958 147.035 31.3438 148.223 31.3438Z" fill="#373042"/>
<path d="M157.286 29.6875C157.286 28.0938 157.812 26.8854 158.864 26.0625C159.927 25.2292 161.333 24.8125 163.083 24.8125C164.01 24.8125 164.906 24.9219 165.771 25.1406L167.364 25.5156V24.4062C167.364 23.4167 167.036 22.6406 166.38 22.0781C165.724 21.5156 164.88 21.2344 163.849 21.2344C162.859 21.2344 162.041 21.5052 161.396 22.0469C160.76 22.5781 160.349 23.3073 160.161 24.2344L157.13 23.4375C157.474 21.9167 158.224 20.7188 159.38 19.8438C160.536 18.9583 162.026 18.5156 163.849 18.5156C166.005 18.5156 167.661 19.0417 168.818 20.0938C169.984 21.1458 170.568 22.6354 170.568 24.5625V34H167.364V31.4375C167.021 32.3229 166.411 33.026 165.536 33.5469C164.672 34.0573 163.588 34.3125 162.286 34.3125C160.963 34.3125 159.797 33.8906 158.786 33.0469C157.786 32.1927 157.286 31.0729 157.286 29.6875ZM167.364 28.2344V28.0781L166.146 27.7656C165.052 27.4844 164.213 27.3438 163.63 27.3438C162.755 27.3438 162.062 27.5156 161.552 27.8594C161.052 28.1927 160.802 28.6927 160.802 29.3594C160.802 29.9844 161.041 30.4896 161.521 30.875C162 31.25 162.703 31.4375 163.63 31.4375C164.745 31.4375 165.646 31.151 166.333 30.5781C167.021 30.0052 167.364 29.224 167.364 28.2344Z" fill="#373042"/>
<path d="M176.756 34H173.397V18.8281H176.756V21.0469C177.767 19.3594 179.355 18.5156 181.522 18.5156C183.126 18.5156 184.413 19.0156 185.381 20.0156C186.35 21.0156 186.834 22.3698 186.834 24.0781V34H183.475V25.2344C183.475 24.026 183.194 23.0833 182.631 22.4062C182.069 21.7292 181.303 21.3906 180.334 21.3906C179.293 21.3906 178.433 21.7656 177.756 22.5156C177.09 23.2656 176.756 24.276 176.756 25.5469V34Z" fill="#373042"/>
<path d="M199.211 18.8281H202.726L192.476 40.3438H188.961L193.023 31.7656L187.039 18.8281H190.664L194.789 28.1094L199.211 18.8281Z" fill="#373042"/>
<path d="M81.595 52.98C82.525 52.98 83.235 52.77 83.725 52.35C84.225 51.92 84.55 51.35 84.7 50.64L85.915 50.835C85.725 51.905 85.255 52.725 84.505 53.295C83.755 53.865 82.785 54.15 81.595 54.15C80.135 54.15 78.975 53.685 78.115 52.755C77.255 51.815 76.825 50.535 76.825 48.915C76.825 48.085 76.94 47.345 77.17 46.695C77.4 46.035 77.72 45.48 78.13 45.03C78.55 44.58 79.055 44.24 79.645 44.01C80.235 43.77 80.885 43.65 81.595 43.65C82.795 43.65 83.765 43.935 84.505 44.505C85.255 45.075 85.715 45.895 85.885 46.965L84.67 47.16C84.52 46.49 84.2 45.935 83.71 45.495C83.23 45.045 82.525 44.82 81.595 44.82C81.025 44.82 80.52 44.92 80.08 45.12C79.64 45.32 79.275 45.6 78.985 45.96C78.695 46.31 78.475 46.74 78.325 47.25C78.175 47.75 78.1 48.305 78.1 48.915C78.1 50.135 78.4 51.12 79 51.87C79.61 52.61 80.475 52.98 81.595 52.98Z" fill="#8F869E"/>
<path d="M90.1891 54.15C89.6991 54.15 89.2391 54.07 88.8091 53.91C88.3891 53.74 88.0291 53.5 87.7291 53.19C87.4291 52.87 87.1891 52.475 87.0091 52.005C86.8391 51.535 86.7541 51.005 86.7541 50.415C86.7541 49.235 87.0741 48.325 87.7141 47.685C88.3541 47.035 89.1791 46.71 90.1891 46.71C91.1891 46.71 91.9991 47.035 92.6191 47.685C93.2391 48.325 93.5491 49.235 93.5491 50.415C93.5491 51.575 93.2391 52.49 92.6191 53.16C91.9991 53.82 91.1891 54.15 90.1891 54.15ZM90.1891 53.085C90.9091 53.085 91.4491 52.85 91.8091 52.38C92.1691 51.9 92.3491 51.245 92.3491 50.415C92.3491 49.575 92.1691 48.925 91.8091 48.465C91.4491 48.005 90.9091 47.775 90.1891 47.775C89.4791 47.775 88.9291 48.005 88.5391 48.465C88.1491 48.925 87.9541 49.575 87.9541 50.415C87.9541 51.245 88.1541 51.9 88.5541 52.38C88.9541 52.85 89.4991 53.085 90.1891 53.085Z" fill="#8F869E"/>
<path d="M94.7629 54V46.86H95.9179V47.79C96.1479 47.44 96.4679 47.175 96.8779 46.995C97.2879 46.805 97.7029 46.71 98.1229 46.71C98.7229 46.71 99.2229 46.83 99.6229 47.07C100.033 47.31 100.328 47.625 100.508 48.015C100.728 47.585 101.068 47.26 101.528 47.04C101.988 46.82 102.463 46.71 102.953 46.71C103.753 46.71 104.393 46.93 104.873 47.37C105.353 47.8 105.593 48.435 105.593 49.275V54H104.393V49.455C104.393 48.965 104.263 48.565 104.003 48.255C103.743 47.945 103.318 47.79 102.728 47.79C102.188 47.79 101.728 47.965 101.348 48.315C100.968 48.665 100.778 49.135 100.778 49.725V54H99.5779V49.455C99.5779 48.965 99.4429 48.565 99.1729 48.255C98.9129 47.945 98.4879 47.79 97.8979 47.79C97.3579 47.79 96.8979 47.965 96.5179 48.315C96.1479 48.665 95.9629 49.135 95.9629 49.725V54H94.7629Z" fill="#8F869E"/>
<path d="M107.156 56.91V46.86H108.356V47.82C108.616 47.45 108.966 47.175 109.406 46.995C109.846 46.805 110.311 46.71 110.801 46.71C111.241 46.71 111.651 46.79 112.031 46.95C112.421 47.1 112.761 47.33 113.051 47.64C113.341 47.94 113.566 48.32 113.726 48.78C113.896 49.24 113.981 49.765 113.981 50.355C113.981 51.535 113.671 52.465 113.051 53.145C112.431 53.815 111.616 54.15 110.606 54.15C110.136 54.15 109.706 54.07 109.316 53.91C108.936 53.75 108.616 53.52 108.356 53.22V56.91H107.156ZM108.356 51.015C108.356 51.665 108.581 52.175 109.031 52.545C109.491 52.905 110.021 53.085 110.621 53.085C111.281 53.085 111.806 52.84 112.196 52.35C112.586 51.86 112.781 51.21 112.781 50.4C112.781 49.62 112.586 48.99 112.196 48.51C111.806 48.02 111.271 47.775 110.591 47.775C110.311 47.775 110.036 47.83 109.766 47.94C109.506 48.04 109.271 48.19 109.061 48.39C108.851 48.58 108.681 48.825 108.551 49.125C108.421 49.425 108.356 49.77 108.356 50.16V51.015Z" fill="#8F869E"/>
<path d="M119.669 54V53.16C119.449 53.45 119.144 53.69 118.754 53.88C118.374 54.06 117.929 54.15 117.419 54.15C116.639 54.15 116.019 53.96 115.559 53.58C115.109 53.2 114.884 52.68 114.884 52.02C114.884 51.28 115.129 50.745 115.619 50.415C116.119 50.085 116.779 49.905 117.599 49.875C117.969 49.865 118.314 49.865 118.634 49.875C118.954 49.875 119.274 49.88 119.594 49.89V49.275C119.594 48.755 119.444 48.375 119.144 48.135C118.844 47.895 118.464 47.775 118.004 47.775C117.494 47.775 117.104 47.9 116.834 48.15C116.574 48.4 116.384 48.705 116.264 49.065L115.124 48.825C115.274 48.195 115.594 47.685 116.084 47.295C116.574 46.905 117.214 46.71 118.004 46.71C118.814 46.71 119.479 46.915 119.999 47.325C120.529 47.725 120.794 48.36 120.794 49.23V54H119.669ZM119.594 50.835C119.294 50.825 118.974 50.82 118.634 50.82C118.304 50.82 117.969 50.825 117.629 50.835C117.119 50.855 116.734 50.965 116.474 51.165C116.214 51.365 116.084 51.645 116.084 52.005C116.084 52.345 116.204 52.62 116.444 52.83C116.694 53.03 117.029 53.13 117.449 53.13C118.049 53.13 118.554 52.985 118.964 52.695C119.384 52.395 119.594 52.005 119.594 51.525V50.835Z" fill="#8F869E"/>
<path d="M122.362 54V46.86H123.517V47.85C123.747 47.48 124.077 47.2 124.507 47.01C124.947 46.81 125.397 46.71 125.857 46.71C126.687 46.71 127.347 46.93 127.837 47.37C128.327 47.8 128.572 48.435 128.572 49.275V54H127.372V49.455C127.372 48.965 127.232 48.565 126.952 48.255C126.682 47.945 126.237 47.79 125.617 47.79C125.047 47.79 124.562 47.965 124.162 48.315C123.762 48.665 123.562 49.135 123.562 49.725V54H122.362Z" fill="#8F869E"/>
<path d="M132.889 55.095C132.619 55.775 132.304 56.245 131.944 56.505C131.584 56.775 131.134 56.91 130.594 56.91H129.904V55.8H130.354C130.694 55.8 130.989 55.725 131.239 55.575C131.489 55.425 131.694 55.15 131.854 54.75L132.169 53.97L129.139 46.86H130.459L132.799 52.515L134.899 46.86H136.144L132.889 55.095Z" fill="#8F869E"/>
<path fill-rule="evenodd" clip-rule="evenodd" d="M18.0923 36.0923C17.8338 34.2 17.5108 31.3385 17.4462 29.4923C17.28 24.3692 17.7877 17.0492 20.6862 12.6C26.9538 2.99077 40.1908 9.30462 38.1969 20.7231C36.7108 29.2154 30.8492 34.2646 25.1908 39.9231C28.2092 50.4923 32.4554 31.5508 38.9077 31.3477C44.4646 31.1723 48.5631 43.8554 41.2431 51.2492C41.9262 46.1354 40.7631 38.7046 38.6308 38.5015C36.6462 38.3077 26.6308 61.9292 19.8923 43.4677C17.2246 45.0462 11.3815 47.0215 5.99077 47.9908C11.4646 55.2831 20.1785 60 30 60C46.5692 60 60 46.5692 60 30C60 13.4308 46.5692 0 30 0C13.4308 0 0 13.4308 0 30C0 35.4554 1.45846 40.5692 3.99692 44.9723L0.821538 47.8523C2.03077 47.4462 3.36 46.8831 4.75385 46.2C11.4831 42.9231 19.7538 36.9508 23.8892 32.8246C27.3231 29.3908 31.2646 24.5538 32.1138 19.68C33.0554 14.2708 27.3508 11.2431 24.9969 17.76C23.8985 20.8246 23.4738 25.0246 23.6123 29.2892C23.6123 29.3723 23.7877 31.9477 23.7323 31.3108C22.0154 33.0923 20.1231 34.6985 18.0923 36.0923Z" fill="#7557FF"/>
</svg>
